<svg xmlns="http://www.w3.org/2000/svg" xmlns:xlink="http://www.w3.org/1999/xlink" width="64" height="70" viewBox="0 0 64 70">
  <defs>
    <filter id="Polygon_2" x="18" y="44" width="29" height="26" filterUnits="userSpaceOnUse">
      <feOffset dy="3" input="SourceAlpha"/>
      <feGaussianBlur stdDeviation="3" result="blur"/>
      <feFlood flood-opacity="0.161"/>
      <feComposite operator="in" in2="blur"/>
      <feComposite in="SourceGraphic"/>
    </filter>
    <filter id="Ellipse_49" x="0" y="0" width="64" height="64" filterUnits="userSpaceOnUse">
      <feOffset dy="3" input="SourceAlpha"/>
      <feGaussianBlur stdDeviation="3" result="blur-2"/>
      <feFlood flood-opacity="0.161"/>
      <feComposite operator="in" in2="blur-2"/>
      <feComposite in="SourceGraphic"/>
    </filter>
  </defs>
  <g id="Group_823" data-name="Group 823" transform="translate(-154 -1190)">
    <g transform="matrix(1, 0, 0, 1, 154, 1190)" filter="url(#Polygon_2)">
      <path id="Polygon_2-2" data-name="Polygon 2" d="M5.5,0,11,8H0Z" transform="translate(38 58) rotate(180)" fill="#fff"/>
    </g>
    <g transform="matrix(1, 0, 0, 1, 154, 1190)" filter="url(#Ellipse_49)">
      <circle id="Ellipse_49-2" data-name="Ellipse 49" cx="23" cy="23" r="23" transform="translate(9 6)" fill="#fff"/>
    </g>
    <g id="restaurant" transform="translate(175.847 1209)">
      <g id="Group_713" data-name="Group 713" transform="translate(1.266)">
        <g id="Group_712" data-name="Group 712">
          <path id="Path_157" data-name="Path 157" d="M47,17,39.155,9.162,29.992,0h-.716L29.13.372a6.569,6.569,0,0,0-.477,2.9A4.1,4.1,0,0,0,29.8,5.888l7.153,7.153L37.9,12.1l6.613,7.394A1.759,1.759,0,0,0,47,17Z" transform="translate(-28.636)" fill="#ff881b"/>
        </g>
      </g>
      <g id="Group_715" data-name="Group 715" transform="translate(0.153 11.384)">
        <g id="Group_714" data-name="Group 714" transform="translate(0)">
          <path id="Path_158" data-name="Path 158" d="M6.269,291.442l-5.6,5.6a1.759,1.759,0,0,0,2.487,2.487l5.6-5.6Z" transform="translate(-0.153 -291.442)" fill="#ff881b"/>
        </g>
      </g>
      <g id="Group_717" data-name="Group 717" transform="translate(10.864 0.014)">
        <g id="Group_716" data-name="Group 716">
          <path id="Path_159" data-name="Path 159" d="M282.788,3.677,279.61,6.855l-.829-.829,3.178-3.178-.829-.829L277.952,5.2l-.829-.829L280.3,1.19l-.829-.829-4.145,4.145a2.926,2.926,0,0,0-.853,1.9,1.689,1.689,0,0,1-.12.529l2.693,2.693a1.687,1.687,0,0,1,.529-.12,2.925,2.925,0,0,0,1.9-.853l4.145-4.145Z" transform="translate(-274.354 -0.361)" fill="#ff881b"/>
        </g>
      </g>
    </g>
  </g>
</svg>
