<svg xmlns="http://www.w3.org/2000/svg" xmlns:xlink="http://www.w3.org/1999/xlink" width="64" height="79" viewBox="0 0 64 79">
  <defs>
    <filter id="Ellipse_49" x="0" y="0" width="64" height="64" filterUnits="userSpaceOnUse">
      <feOffset dy="3" input="SourceAlpha"/>
      <feGaussianBlur stdDeviation="3" result="blur"/>
      <feFlood flood-opacity="0.161"/>
      <feComposite operator="in" in2="blur"/>
      <feComposite in="SourceGraphic"/>
    </filter>
    <filter id="Ellipse_45" x="19" y="53" width="26" height="26" filterUnits="userSpaceOnUse">
      <feOffset dy="3" input="SourceAlpha"/>
      <feGaussianBlur stdDeviation="3" result="blur-2"/>
      <feFlood flood-opacity="0.161"/>
      <feComposite operator="in" in2="blur-2"/>
      <feComposite in="SourceGraphic"/>
    </filter>
  </defs>
  <g id="Group_767" data-name="Group 767" transform="translate(-186 -1256)">
    <path id="Polygon_1" data-name="Polygon 1" d="M5.5,0,11,8H0Z" transform="translate(224 1314) rotate(180)" fill="#262f6a"/>
    <g id="Group_766" data-name="Group 766">
      <g transform="matrix(1, 0, 0, 1, 186, 1256)" filter="url(#Ellipse_49)">
        <g id="Ellipse_49-2" data-name="Ellipse 49" transform="translate(9 6)" fill="#fff" stroke="#262f6a" stroke-width="2">
          <circle cx="23" cy="23" r="23" stroke="none"/>
          <circle cx="23" cy="23" r="22" fill="none"/>
        </g>
      </g>
      <path id="home_1_" data-name="home (1)" d="M20.574,9.2h0L11.947.57a1.946,1.946,0,0,0-2.753,0L.574,9.19.565,9.2a1.946,1.946,0,0,0,1.3,3.316l.06,0h.344v6.347a2.281,2.281,0,0,0,2.278,2.278H7.917a.62.62,0,0,0,.619-.619V15.548a1.04,1.04,0,0,1,1.039-1.039h1.99a1.04,1.04,0,0,1,1.039,1.039v4.976a.619.619,0,0,0,.619.619H16.6a2.281,2.281,0,0,0,2.278-2.278V12.518H19.2A1.947,1.947,0,0,0,20.574,9.2Zm0,0" transform="translate(207 1274.001)" fill="#262f6a"/>
    </g>
    <g transform="matrix(1, 0, 0, 1, 186, 1256)" filter="url(#Ellipse_45)">
      <g id="Ellipse_45-2" data-name="Ellipse 45" transform="translate(28 59)" fill="#262f6a" stroke="#fff" stroke-width="1">
        <circle cx="4" cy="4" r="4" stroke="none"/>
        <circle cx="4" cy="4" r="3.5" fill="none"/>
      </g>
    </g>
  </g>
</svg>
