<svg xmlns="http://www.w3.org/2000/svg" xmlns:xlink="http://www.w3.org/1999/xlink" width="64" height="70" viewBox="0 0 64 70">
  <defs>
    <filter id="Polygon_2" x="18" y="44" width="29" height="26" filterUnits="userSpaceOnUse">
      <feOffset dy="3" input="SourceAlpha"/>
      <feGaussianBlur stdDeviation="3" result="blur"/>
      <feFlood flood-opacity="0.161"/>
      <feComposite operator="in" in2="blur"/>
      <feComposite in="SourceGraphic"/>
    </filter>
    <filter id="Ellipse_49" x="0" y="0" width="64" height="64" filterUnits="userSpaceOnUse">
      <feOffset dy="3" input="SourceAlpha"/>
      <feGaussianBlur stdDeviation="3" result="blur-2"/>
      <feFlood flood-opacity="0.161"/>
      <feComposite operator="in" in2="blur-2"/>
      <feComposite in="SourceGraphic"/>
    </filter>
  </defs>
  <g id="hospital" transform="translate(-21 -1637)">
    <g id="Group_1136" data-name="Group 1136" transform="translate(-133 447)">
      <g transform="matrix(1, 0, 0, 1, 154, 1190)" filter="url(#Polygon_2)">
        <path id="Polygon_2-2" data-name="Polygon 2" d="M5.5,0,11,8H0Z" transform="translate(38 58) rotate(180)" fill="#fff"/>
      </g>
      <g transform="matrix(1, 0, 0, 1, 154, 1190)" filter="url(#Ellipse_49)">
        <circle id="Ellipse_49-2" data-name="Ellipse 49" cx="23" cy="23" r="23" transform="translate(9 6)" fill="#fff"/>
      </g>
    </g>
    <g id="hospital-2" data-name="hospital" transform="translate(37 1649)">
      <path id="Path_2698" data-name="Path 2698" d="M4.6,28H27.4a.6.6,0,0,0,.6-.6V13a.6.6,0,0,0-.6-.6h-3V7a.6.6,0,0,0-.6-.6h-3V5.8A1.8,1.8,0,0,0,19,4H13a1.8,1.8,0,0,0-1.8,1.8v.6h-3a.6.6,0,0,0-.6.6v5.4h-3A.6.6,0,0,0,4,13V27.4A.6.6,0,0,0,4.6,28ZM24.4,13.6h2.4V26.8H24.4ZM17.8,26.8H14.2V22.6h3.6Zm-5.4-21a.6.6,0,0,1,.6-.6h6a.6.6,0,0,1,.6.6v6a.6.6,0,0,1-.6.6H13a.6.6,0,0,1-.6-.6ZM8.8,7.6h2.4v4.2A1.8,1.8,0,0,0,13,13.6h6a1.8,1.8,0,0,0,1.8-1.8V7.6h2.4V26.8H19V22a.6.6,0,0,0-.6-.6H13.6a.6.6,0,0,0-.6.6v4.8H8.8Zm-3.6,6H7.6V26.8H5.2Z" transform="translate(0 0)" fill="#f44336"/>
      <path id="Path_2699" data-name="Path 2699" d="M20.475,10.375h.95v.95a.475.475,0,0,0,.95,0v-.95h.95a.475.475,0,0,0,0-.95h-.95v-.95a.475.475,0,0,0-.95,0v.95h-.95a.475.475,0,0,0,0,.95Z" transform="translate(-5.9 -2.1)" fill="#f44336"/>
      <path id="Path_2700" data-name="Path 2700" d="M16.475,23.95h.95a.475.475,0,1,0,0-.95h-.95a.475.475,0,0,0,0,.95Z" transform="translate(-4.633 -7.475)" fill="#f44336"/>
      <path id="Path_2701" data-name="Path 2701" d="M17.9,28.475A.475.475,0,0,0,17.425,28h-.95a.475.475,0,0,0,0,.95h.95A.475.475,0,0,0,17.9,28.475Z" transform="translate(-4.633 -9.442)" fill="#f44336"/>
      <path id="Path_2702" data-name="Path 2702" d="M22.475,23.95h.95a.475.475,0,1,0,0-.95h-.95a.475.475,0,1,0,0,.95Z" transform="translate(-6.95 -7.475)" fill="#f44336"/>
      <path id="Path_2703" data-name="Path 2703" d="M22.475,28.95h.95a.475.475,0,1,0,0-.95h-.95a.475.475,0,1,0,0,.95Z" transform="translate(-6.95 -9.442)" fill="#f44336"/>
      <path id="Path_2704" data-name="Path 2704" d="M28.475,23.95h.95a.475.475,0,1,0,0-.95h-.95a.475.475,0,0,0,0,.95Z" transform="translate(-9.267 -7.475)" fill="#f44336"/>
      <path id="Path_2705" data-name="Path 2705" d="M28.475,28.95h.95a.475.475,0,1,0,0-.95h-.95a.475.475,0,0,0,0,.95Z" transform="translate(-9.267 -9.442)" fill="#f44336"/>
    </g>
  </g>
</svg>
