<svg xmlns="http://www.w3.org/2000/svg" xmlns:xlink="http://www.w3.org/1999/xlink" width="64" height="70" viewBox="0 0 64 70">
  <defs>
    <filter id="Polygon_2" x="18" y="44" width="29" height="26" filterUnits="userSpaceOnUse">
      <feOffset dy="3" input="SourceAlpha"/>
      <feGaussianBlur stdDeviation="3" result="blur"/>
      <feFlood flood-opacity="0.161"/>
      <feComposite operator="in" in2="blur"/>
      <feComposite in="SourceGraphic"/>
    </filter>
    <filter id="Ellipse_49" x="0" y="0" width="64" height="64" filterUnits="userSpaceOnUse">
      <feOffset dy="3" input="SourceAlpha"/>
      <feGaussianBlur stdDeviation="3" result="blur-2"/>
      <feFlood flood-opacity="0.161"/>
      <feComposite operator="in" in2="blur-2"/>
      <feComposite in="SourceGraphic"/>
    </filter>
  </defs>
  <g id="Group_770" data-name="Group 770" transform="translate(-76 -1238)">
    <g transform="matrix(1, 0, 0, 1, 76, 1238)" filter="url(#Polygon_2)">
      <path id="Polygon_2-2" data-name="Polygon 2" d="M5.5,0,11,8H0Z" transform="translate(38 58) rotate(180)" fill="#fff"/>
    </g>
    <g transform="matrix(1, 0, 0, 1, 76, 1238)" filter="url(#Ellipse_49)">
      <circle id="Ellipse_49-2" data-name="Ellipse 49" cx="23" cy="23" r="23" transform="translate(9 6)" fill="#fff"/>
    </g>
    <path id="shopping-cart" d="M6.215,42.377a.708.708,0,0,1,0-1.415c2.611.009,9.5,0,12.19,0a1.566,1.566,0,0,0,1.533-1.219l1.53-6.623a1.273,1.273,0,0,0-1.235-1.559c-1.084,0-10.282-.042-14.993-.06l-.747-2.771a1.525,1.525,0,0,0-1.47-1.125H.63a.63.63,0,0,0,0,1.26H3.023a.262.262,0,0,1,.253.193L6.143,39.7a1.967,1.967,0,0,0-1.9,2,1.977,1.977,0,0,0,1.968,1.934h.919a2.206,2.206,0,1,0,3.985,0H15.1a2.206,2.206,0,1,0,3.969-.033.63.63,0,0,0-.2-1.227Zm3.857,2.206a.945.945,0,1,1-.946-.945h0A.946.946,0,0,1,10.072,44.583Zm7.019.945a.945.945,0,0,1-.015-1.89h.031a.945.945,0,0,1-.015,1.89Zm3.145-12.7a.01.01,0,0,1,0,.011l-.644,2.791H17.412l.372-2.816,2.443.01A.01.01,0,0,1,20.236,32.83Zm-6.5,6.876V36.892h2.235L15.6,39.706Zm-3.125,0-.374-2.814h2.239v2.814Zm-2.9,0h0a.341.341,0,0,1-.329-.251l-.691-2.563H8.968l.374,2.814Zm2.359-4.075-.379-2.849,2.786.011v2.837Zm3.667,0V32.8l2.774.011-.372,2.821ZM8.421,32.778l.38,2.854H6.351l-.772-2.865ZM18.4,39.706h-1.53l.371-2.814H19.3l-.594,2.572A.311.311,0,0,1,18.4,39.706Z" transform="translate(97 1229.391)" fill="#a24ab7"/>
  </g>
</svg>
