<svg xmlns="http://www.w3.org/2000/svg" xmlns:xlink="http://www.w3.org/1999/xlink" width="64" height="70" viewBox="0 0 64 70">
  <defs>
    <filter id="Polygon_2" x="18" y="44" width="29" height="26" filterUnits="userSpaceOnUse">
      <feOffset dy="3" input="SourceAlpha"/>
      <feGaussianBlur stdDeviation="3" result="blur"/>
      <feFlood flood-opacity="0.161"/>
      <feComposite operator="in" in2="blur"/>
      <feComposite in="SourceGraphic"/>
    </filter>
    <filter id="Ellipse_49" x="0" y="0" width="64" height="64" filterUnits="userSpaceOnUse">
      <feOffset dy="3" input="SourceAlpha"/>
      <feGaussianBlur stdDeviation="3" result="blur-2"/>
      <feFlood flood-opacity="0.161"/>
      <feComposite operator="in" in2="blur-2"/>
      <feComposite in="SourceGraphic"/>
    </filter>
  </defs>
  <g id="Mosque" transform="translate(-133 -1637)">
    <g id="Group_1134" data-name="Group 1134" transform="translate(-21 447)">
      <g transform="matrix(1, 0, 0, 1, 154, 1190)" filter="url(#Polygon_2)">
        <path id="Polygon_2-2" data-name="Polygon 2" d="M5.5,0,11,8H0Z" transform="translate(38 58) rotate(180)" fill="#fff"/>
      </g>
      <g transform="matrix(1, 0, 0, 1, 154, 1190)" filter="url(#Ellipse_49)">
        <circle id="Ellipse_49-2" data-name="Ellipse 49" cx="23" cy="23" r="23" transform="translate(9 6)" fill="#fff"/>
      </g>
    </g>
    <g id="layer1" transform="translate(152.354 1370.344)">
      <path id="path9198" d="M12.685,280.656a.6.6,0,0,0-.169.018,3.755,3.755,0,0,0,.006,7.274v.925c-1.041,1.622-3.375,2.706-5.558,4.074a11.352,11.352,0,0,0-2.993,2.51,6.165,6.165,0,0,0-1.326,3.906,8.478,8.478,0,0,0,1.286,4.7H22.05a8.471,8.471,0,0,0,1.29-4.7,6.167,6.167,0,0,0-1.33-3.906,11.337,11.337,0,0,0-2.989-2.51c-2.181-1.366-4.515-2.449-5.558-4.068v-.806a3.761,3.761,0,0,0,3.624-2.782.47.47,0,0,0-.726-.571,2.347,2.347,0,0,1-3.839-1.819,2.39,2.39,0,0,1,.531-1.486.462.462,0,0,0-.368-.758ZM4.055,305a1.419,1.419,0,0,0-1.409,1.414v1.877a.47.47,0,0,0,.468.472H22.868a.47.47,0,0,0,.472-.472v-1.877A1.422,1.422,0,0,0,21.927,305Z" transform="translate(0 0)" fill="#47a75e"/>
    </g>
  </g>
</svg>
