<svg xmlns="http://www.w3.org/2000/svg" xmlns:xlink="http://www.w3.org/1999/xlink" width="64" height="70" viewBox="0 0 64 70">
  <defs>
    <filter id="Polygon_2" x="18" y="44" width="29" height="26" filterUnits="userSpaceOnUse">
      <feOffset dy="3" input="SourceAlpha"/>
      <feGaussianBlur stdDeviation="3" result="blur"/>
      <feFlood flood-opacity="0.161"/>
      <feComposite operator="in" in2="blur"/>
      <feComposite in="SourceGraphic"/>
    </filter>
    <filter id="Ellipse_49" x="0" y="0" width="64" height="64" filterUnits="userSpaceOnUse">
      <feOffset dy="3" input="SourceAlpha"/>
      <feGaussianBlur stdDeviation="3" result="blur-2"/>
      <feFlood flood-opacity="0.161"/>
      <feComposite operator="in" in2="blur-2"/>
      <feComposite in="SourceGraphic"/>
    </filter>
  </defs>
  <g id="Group_44066" data-name="Group 44066" transform="translate(-78 -1637)">
    <g id="Group_1135" data-name="Group 1135" transform="translate(-76 447)">
      <g transform="matrix(1, 0, 0, 1, 154, 1190)" filter="url(#Polygon_2)">
        <path id="Polygon_2-2" data-name="Polygon 2" d="M5.5,0,11,8H0Z" transform="translate(38 58) rotate(180)" fill="#fff"/>
      </g>
      <g transform="matrix(1, 0, 0, 1, 154, 1190)" filter="url(#Ellipse_49)">
        <circle id="Ellipse_49-2" data-name="Ellipse 49" cx="23" cy="23" r="23" transform="translate(9 6)" fill="#fff"/>
      </g>
    </g>
    <g id="university" transform="translate(98 1632.32)">
      <g id="Group_727" data-name="Group 727" transform="translate(0 21.68)">
        <g id="Group_726" data-name="Group 726" transform="translate(0 0)">
          <path id="Path_167" data-name="Path 167" d="M23.586,31.789H18.294V30.767a.414.414,0,0,0-.211-.36l-5.669-3.186V25.6h1.121v.617a.414.414,0,0,0,.414.414H17.33a.414.414,0,0,0,.389-.554l-.339-.964.343-.943a.414.414,0,0,0-.389-.554H15.794v-.6a.414.414,0,0,0-.414-.414H12.414v-.5a.414.414,0,0,0-.828,0v5.127L5.917,30.4a.414.414,0,0,0-.211.36v1.022H.414A.414.414,0,0,0,0,32.2V43.023a.414.414,0,0,0,.414.414H23.586A.414.414,0,0,0,24,43.023V32.2A.414.414,0,0,0,23.586,31.789Zm-7.792-6.6-.017-.017v-.712h.943l-.17.53a.414.414,0,0,0,0,.286l.194.53H14.363v-.2h1.018A.414.414,0,0,0,15.794,25.185Zm-3.381-1.759h2.553v1.345H12.414ZM5.706,42.61H.828V32.617H5.706Zm5.88,0H9.414V37.884h2.172Zm3,0H12.414V37.884h2.172Zm2.9,0H15.414V37.47A.414.414,0,0,0,15,37.057H9a.414.414,0,0,0-.414.414V42.61H6.517V31.023L12,27.937l5.466,3.07.017,1.192Zm5.69,0H18.294V32.617h4.879Z" transform="translate(0 -21.68)" fill="#7e5c62"/>
        </g>
      </g>
      <g id="Group_729" data-name="Group 729" transform="translate(10.266 29.203)">
        <g id="Group_728" data-name="Group 728">
          <path id="Path_168" data-name="Path 168" d="M200.214,167.12a1.734,1.734,0,1,0,1.734,1.73A1.738,1.738,0,0,0,200.214,167.12Zm0,2.64a.906.906,0,1,1,.906-.9h0A.906.906,0,0,1,200.214,169.76Z" transform="translate(-198.48 -167.12)" fill="#7e5c62"/>
        </g>
      </g>
      <g id="Group_731" data-name="Group 731" transform="translate(1.825 33.527)">
        <g id="Group_730" data-name="Group 730">
          <rect id="Rectangle_129" data-name="Rectangle 129" width="0.828" height="1.655" fill="#7e5c62"/>
        </g>
      </g>
      <g id="Group_733" data-name="Group 733" transform="translate(3.865 33.527)">
        <g id="Group_732" data-name="Group 732">
          <rect id="Rectangle_130" data-name="Rectangle 130" width="0.828" height="1.655" fill="#7e5c62"/>
        </g>
      </g>
      <g id="Group_735" data-name="Group 735" transform="translate(7.775 33.527)">
        <g id="Group_734" data-name="Group 734">
          <rect id="Rectangle_131" data-name="Rectangle 131" width="1.655" height="0.828" fill="#7e5c62"/>
        </g>
      </g>
      <g id="Group_737" data-name="Group 737" transform="translate(11.172 33.527)">
        <g id="Group_736" data-name="Group 736">
          <rect id="Rectangle_132" data-name="Rectangle 132" width="1.655" height="0.828" fill="#7e5c62"/>
        </g>
      </g>
      <g id="Group_739" data-name="Group 739" transform="translate(14.57 33.527)">
        <g id="Group_738" data-name="Group 738">
          <rect id="Rectangle_133" data-name="Rectangle 133" width="1.655" height="0.828" fill="#7e5c62"/>
        </g>
      </g>
      <g id="Group_741" data-name="Group 741" transform="translate(7.775 35.455)">
        <g id="Group_740" data-name="Group 740">
          <rect id="Rectangle_134" data-name="Rectangle 134" width="1.655" height="0.828" fill="#7e5c62"/>
        </g>
      </g>
      <g id="Group_743" data-name="Group 743" transform="translate(11.172 35.455)">
        <g id="Group_742" data-name="Group 742">
          <rect id="Rectangle_135" data-name="Rectangle 135" width="1.655" height="0.828" fill="#7e5c62"/>
        </g>
      </g>
      <g id="Group_745" data-name="Group 745" transform="translate(14.57 35.455)">
        <g id="Group_744" data-name="Group 744">
          <rect id="Rectangle_136" data-name="Rectangle 136" width="1.655" height="0.828" fill="#7e5c62"/>
        </g>
      </g>
      <g id="Group_747" data-name="Group 747" transform="translate(1.825 36.783)">
        <g id="Group_746" data-name="Group 746">
          <rect id="Rectangle_137" data-name="Rectangle 137" width="0.828" height="1.655" fill="#7e5c62"/>
        </g>
      </g>
      <g id="Group_749" data-name="Group 749" transform="translate(3.865 36.783)">
        <g id="Group_748" data-name="Group 748">
          <rect id="Rectangle_138" data-name="Rectangle 138" width="0.828" height="1.655" fill="#7e5c62"/>
        </g>
      </g>
      <g id="Group_751" data-name="Group 751" transform="translate(1.825 40.044)">
        <g id="Group_750" data-name="Group 750">
          <rect id="Rectangle_139" data-name="Rectangle 139" width="0.828" height="1.655" fill="#7e5c62"/>
        </g>
      </g>
      <g id="Group_753" data-name="Group 753" transform="translate(3.865 40.044)">
        <g id="Group_752" data-name="Group 752">
          <rect id="Rectangle_140" data-name="Rectangle 140" width="0.828" height="1.655" fill="#7e5c62"/>
        </g>
      </g>
      <g id="Group_755" data-name="Group 755" transform="translate(19.308 33.527)">
        <g id="Group_754" data-name="Group 754">
          <rect id="Rectangle_141" data-name="Rectangle 141" width="0.828" height="1.655" fill="#7e5c62"/>
        </g>
      </g>
      <g id="Group_757" data-name="Group 757" transform="translate(21.348 33.527)">
        <g id="Group_756" data-name="Group 756">
          <rect id="Rectangle_142" data-name="Rectangle 142" width="0.828" height="1.655" fill="#7e5c62"/>
        </g>
      </g>
      <g id="Group_759" data-name="Group 759" transform="translate(19.308 36.783)">
        <g id="Group_758" data-name="Group 758">
          <rect id="Rectangle_143" data-name="Rectangle 143" width="0.828" height="1.655" fill="#7e5c62"/>
        </g>
      </g>
      <g id="Group_761" data-name="Group 761" transform="translate(21.348 36.783)">
        <g id="Group_760" data-name="Group 760">
          <rect id="Rectangle_144" data-name="Rectangle 144" width="0.828" height="1.655" fill="#7e5c62"/>
        </g>
      </g>
      <g id="Group_763" data-name="Group 763" transform="translate(19.308 40.044)">
        <g id="Group_762" data-name="Group 762">
          <rect id="Rectangle_145" data-name="Rectangle 145" width="0.828" height="1.655" fill="#7e5c62"/>
        </g>
      </g>
      <g id="Group_765" data-name="Group 765" transform="translate(21.348 40.044)">
        <g id="Group_764" data-name="Group 764">
          <rect id="Rectangle_146" data-name="Rectangle 146" width="0.828" height="1.655" fill="#7e5c62"/>
        </g>
      </g>
    </g>
  </g>
</svg>
