<svg xmlns="http://www.w3.org/2000/svg" width="257" height="84" viewBox="0 0 257 84">
  <g id="Horizontal_logo_" data-name="Horizontal logo " transform="translate(-60 -455)">
    <text id="عـــــــقــــــاراتــكـــــــمـــ" transform="translate(128 527)" fill="#ff881b" font-size="24" font-family="SSTArabic-Bold, SST Arabic" font-weight="700" letter-spacing="0.02em"><tspan x="0" y="0">عـــــــقــــــاراتــكـــــــمـــ</tspan></text>
    <g id="Group_36" data-name="Group 36" transform="translate(1577.063 -3064.171)">
      <path id="Path_34" data-name="Path 34" d="M4769.646,948.279a29.258,29.258,0,1,1,56.168,0,2.546,2.546,0,0,1-4.248,1.085l-.167-.167a2.5,2.5,0,0,1-.649-2.505,23.959,23.959,0,1,0-46.05,0,2.487,2.487,0,0,1-.648,2.5l-.167.167a2.544,2.544,0,0,1-4.244-1.085Zm45.083,16.154-15.2,15.2a2.556,2.556,0,0,1-3.605,0l-15.2-15.2a2.555,2.555,0,0,1,0-3.6l.147-.147a2.554,2.554,0,0,1,3.6,0l11.449,11.448a2.556,2.556,0,0,0,3.605,0l11.448-11.448a2.555,2.555,0,0,1,3.606,0l.147.147a2.555,2.555,0,0,1,0,3.6Z" transform="translate(-6285.018 2617)" fill="#ff881b"/>
      <path id="Path_35" data-name="Path 35" d="M4760.691,1287.614l27.219-27.219a2.554,2.554,0,0,1,3.605,0l27.22,27.219a2.556,2.556,0,0,1,0,3.606l-.147.147a2.555,2.555,0,0,1-3.6,0l-23.473-23.472a2.555,2.555,0,0,0-3.605,0l-23.472,23.472a2.556,2.556,0,0,1-3.6,0l-.147-.147a2.556,2.556,0,0,1,0-3.606Z" transform="translate(-6277 2289.34)" fill="#262f6a"/>
      <path id="Path_36" data-name="Path 36" d="M5161.584,1566.149h2.461a1.14,1.14,0,0,1,1.139,1.139v2.461a1.14,1.14,0,0,1-1.139,1.14h-2.461a1.141,1.141,0,0,1-1.14-1.14v-2.461a1.141,1.141,0,0,1,1.14-1.139m6.149,6.09h2.461a1.14,1.14,0,0,1,1.139,1.14v2.461a1.14,1.14,0,0,1-1.139,1.139h-2.461a1.141,1.141,0,0,1-1.14-1.139v-2.461a1.141,1.141,0,0,1,1.14-1.14m-6.149,0h2.461a1.14,1.14,0,0,1,1.139,1.14v2.461a1.14,1.14,0,0,1-1.139,1.139h-2.461a1.141,1.141,0,0,1-1.14-1.139v-2.461a1.141,1.141,0,0,1,1.14-1.14m6.149-6.09h2.461a1.14,1.14,0,0,1,1.139,1.139v2.461a1.14,1.14,0,0,1-1.139,1.14h-2.461a1.141,1.141,0,0,1-1.14-1.14v-2.461a1.141,1.141,0,0,1,1.14-1.139" transform="translate(-6653.174 2001.463)" fill="#262f6a"/>
    </g>
    <text id="Aqaratikom" transform="translate(131 494)" fill="#262f6a" font-size="30" font-family="Co Headline Bold, Co Headline" letter-spacing="0.02em"><tspan x="0" y="0">Aqaratikom</tspan></text>
  </g>
</svg>
