<svg xmlns="http://www.w3.org/2000/svg" width="20.087" height="19.11" viewBox="0 0 20.087 19.11">
  <g id="check" transform="translate(0 -12.437)">
    <g id="Group_44605" data-name="Group 44605" transform="translate(0 12.437)">
      <path id="Path_2939" data-name="Path 2939" d="M255.484,21.992l-2.274-2.525.356-3.38-3.325-.7-1.7-2.947-3.1,1.387-.419,8.168.419,8.168,3.1,1.387,1.7-2.947,3.325-.7-.356-3.38Z" transform="translate(-235.396 -12.437)" fill="#0ed678"/>
      <path id="Path_2940" data-name="Path 2940" d="M6.939,12.437l-1.7,2.947-3.325.7.356,3.38L0,21.992l2.274,2.525L1.918,27.9l3.325.7,1.7,2.947,3.1-1.387V13.824Z" transform="translate(0 -12.437)" fill="#04eb84"/>
    </g>
    <g id="Group_44606" data-name="Group 44606" transform="translate(5.709 19.008)">
      <path id="Path_2941" data-name="Path 2941" d="M249.651,180.51l-.879-.785-3.331,3.732-.419.928.419.842Z" transform="translate(-241.106 -179.725)" fill="#f7f0eb"/>
      <path id="Path_2942" data-name="Path 2942" d="M146.181,233.095l-.833.833,3.5,3.5.831-.931v-1.77l-.88.985Z" transform="translate(-145.348 -230.999)" fill="#fffbf5"/>
    </g>
  </g>
</svg>
